<?xml version="1.0" encoding="UTF-8" standalone="no"?>
<svg xmlns="http://www.w3.org/2000/svg" width="8in" height="8in" viewBox="0 0 8 8" version="1.1">
    <g transform="translate(0,-1)">
        <path id="mouth" style="fill:#8899ac;stroke-width:0" d="m 1.5,4 a 2.5,2.5000108 0 0 0 1.25,2.1650621 2.5,2.5000108 0 0 0 2.5,0 A 2.5,2.5000108 0 0 0 6.5,4 H 5.6666667 a 1.6666667,1.6666739 0 0 1 -0.8333334,1.4433859 1.6666667,1.6666739 0 0 1 -1.6666666,0 A 1.6666667,1.6666739 0 0 1 2.3333333,4 Z" />
        <rect id="noseL" style="fill:#8899ac;stroke-width:0" width="0.5" height="1.25" x="5.126524" y="-0.71966994" rx="9.2518588e-18" transform="rotate(45)" />
        <rect id="noseB" style="fill:#8899ac;stroke-width:0" width="1.5" height="0.5" x="3.25" y="4" rx="2.7755576e-17" />
        <circle id="eyeR" style="fill:#8899ac;stroke-width:0" cx="5" cy="2.5" r="0.5" />
        <circle id="eyeL" style="fill:#8899ac;stroke-width:0" cx="3" cy="2.5" r="0.5" />
    </g>
    <text x="4" y="7.25" text-anchor="middle" dominant-baseline="middle" font-size="1.5" font-family="Arial, sans-serif" fill="#8899ac">FloorJS</text>
</svg>